# 3ds Max Wavefront OBJ Exporter v0.97b - (c)2007 guruware
# File Created: 12.09.2015 20:34:25

mtllib 3d-model.mtl

#
# object Layer0_001
#

v  -261.9375 0.0000 246.0625
v  -261.9375 0.0000 -258.7625
v  261.9375 0.0000 -258.7625
v  -237.4225 0.0000 238.1250
v  -226.8109 0.0000 238.1250
v  -226.8109 0.0000 246.0625
v  220.3680 0.0000 238.1250
v  224.5400 0.0000 238.1250
v  224.5400 0.0000 246.0625
v  261.9375 0.0000 246.0625
v  220.3680 0.0000 246.0625
v  -237.4225 0.0000 246.0625
v  -261.9375 2035.1749 -258.7625
v  -261.9375 2035.1749 246.0625
v  261.9375 2035.1749 246.0625
v  261.9375 2035.1749 -258.7625
v  224.5400 1997.0750 246.0625
v  -237.4225 1997.0750 246.0625
v  90.5442 218.7815 246.0625
v  -226.8109 126.1694 246.0625
v  220.3680 126.1694 246.0625
v  220.3680 1983.9291 246.0625
v  90.5442 232.3890 246.0625
v  90.5442 242.1076 246.0625
v  90.5442 251.4246 246.0625
v  90.5442 262.1741 246.0625
v  90.5442 276.0060 246.0625
v  90.5442 282.9015 246.0625
v  90.5442 291.8839 246.0625
v  90.5442 301.5812 246.0625
v  90.5442 319.9778 246.0625
v  -106.3058 319.9778 246.0625
v  -148.2448 1106.2010 246.0625
v  -148.2448 1230.0261 246.0625
v  -214.9198 1230.0261 246.0625
v  87.1084 1801.1980 246.0625
v  87.1084 1817.5638 246.0625
v  87.1084 1829.0334 246.0625
v  87.1084 1841.6393 246.0625
v  87.1084 1850.6781 246.0625
v  87.1084 1861.0159 246.0625
v  87.1084 1872.7488 246.0625
v  87.1084 1888.0198 246.0625
v  -111.3291 1888.0198 246.0625
v  -226.8109 1983.9291 246.0625
v  -111.3291 1872.7488 246.0625
v  -111.3291 1861.0159 246.0625
v  -111.3291 1850.6781 246.0625
v  -111.3291 1841.6393 246.0625
v  -111.3291 1829.0334 246.0625
v  -111.3291 1817.5638 246.0625
v  -111.3291 1801.1980 246.0625
v  -214.9198 1106.2010 246.0625
v  -106.3058 218.7815 246.0625
v  -106.3058 232.3890 246.0625
v  -106.3058 242.1076 246.0625
v  -106.3058 251.4246 246.0625
v  -106.3058 262.1741 246.0625
v  -106.3058 276.0060 246.0625
v  -106.3058 282.9015 246.0625
v  -106.3058 291.8839 246.0625
v  -106.3058 301.5812 246.0625
v  220.3680 116.1124 246.0625
v  -226.8109 116.1124 246.0625
v  224.5400 126.1694 238.1250
v  220.3680 116.1124 238.1250
v  -226.8109 116.1124 238.1250
v  -237.4225 126.1694 238.1250
v  220.3680 126.1694 238.1250
v  -226.8109 126.1694 238.1250
v  224.5400 1997.0750 227.0125
v  224.5400 126.1694 227.0125
v  220.3680 1983.9291 227.0125
v  220.3680 126.1694 227.0125
v  -237.4225 1997.0750 227.0125
v  -237.4225 126.1694 227.0125
v  -226.8109 1983.9291 227.0125
v  -226.8109 126.1694 227.0125
v  -111.3291 1872.7488 254.0000
v  87.1084 1872.7488 254.0000
v  -111.3291 1850.6781 254.0000
v  87.1084 1850.6781 254.0000
v  -111.3291 1829.0334 254.0000
v  87.1084 1829.0334 254.0000
v  -111.3291 1801.1980 254.0000
v  87.1084 1801.1980 254.0000
v  -185.8091 1113.8909 234.9500
v  -157.2341 1113.8909 234.9500
v  -157.2341 1218.6659 234.9500
v  -185.8091 1218.6659 234.9500
v  -214.9198 1230.0261 258.7625
v  -148.2448 1230.0261 258.7625
v  -214.9198 1106.2010 258.7625
v  -148.2448 1106.2010 258.7625
v  -157.2341 1113.8909 258.7625
v  -157.2341 1218.6659 258.7625
v  -185.8091 1218.6659 246.8562
v  -185.8091 1113.8909 246.8562
v  -179.4591 1113.8909 246.8562
v  -179.4591 1218.6659 246.8562
v  -192.1591 1218.6659 258.7625
v  -192.1591 1113.8909 258.7625
v  -179.4591 1218.6659 249.2375
v  -179.4591 1113.8909 249.2375
v  -106.3058 301.5812 254.0000
v  90.5442 301.5812 254.0000
v  -106.3058 276.0060 254.0000
v  90.5442 276.0060 254.0000
v  -106.3058 218.7815 254.0000
v  90.5442 218.7815 254.0000
v  -106.3058 237.0111 243.3663
v  90.5442 237.0111 243.3663
v  -106.3058 283.9798 244.8212
v  90.5442 283.9798 244.8212
v  -106.3058 251.4246 254.0000
v  90.5442 251.4246 254.0000
# 116 vertices

vn 0.0000 -1.0000 -0.0000
vn 0.0000 1.0000 -0.0000
vn -1.0000 0.0000 -0.0000
vn 0.0000 0.0000 -1.0000
vn 1.0000 0.0000 -0.0000
vn 0.0000 0.0000 1.0000
vn -0.0000 -1.0000 -0.0000
vn 0.0000 0.4612 0.8873
vn 0.0000 0.5328 0.8462
vn 0.0000 0.4364 0.8998
vn 0.0000 0.6090 0.7932
vn 0.6000 0.0000 0.8000
vn 0.0000 0.3962 0.9182
vn -0.0000 -0.4676 0.8839
vn -0.0000 0.5039 0.8638
vn -0.0000 0.7549 0.6558
vn 0.0000 0.5940 0.8045
vn 0.0000 -0.1551 0.9879
# 18 vertex normals

vt 0.0000 0.0000 0.0000
vt 0.9576 0.0000 0.0000
vt 1.0313 0.0000 0.0000
vt 1.0313 1.0016 0.0000
vt 0.9576 0.9828 0.0000
vt 0.0483 0.9828 0.0000
vt 0.0000 1.0016 0.0000
vt 0.0483 0.0000 0.0000
vt 0.6939 0.1077 0.0000
vt 0.0691 0.0621 0.0000
vt 0.9494 0.0621 0.0000
vt 0.9494 0.9763 0.0000
vt 0.6939 0.1144 0.0000
vt 0.6939 0.1191 0.0000
vt 0.6939 0.1237 0.0000
vt 0.6939 0.1290 0.0000
vt 0.6939 0.1358 0.0000
vt 0.6939 0.1392 0.0000
vt 0.6939 0.1436 0.0000
vt 0.6939 0.1484 0.0000
vt 0.6939 0.1575 0.0000
vt 0.3064 0.1575 0.0000
vt 0.2238 0.5444 0.0000
vt 0.2238 0.6053 0.0000
vt 0.0926 0.6053 0.0000
vt 0.6871 0.8864 0.0000
vt 0.6871 0.8945 0.0000
vt 0.6871 0.9001 0.0000
vt 0.6871 0.9063 0.0000
vt 0.6871 0.9108 0.0000
vt 0.6871 0.9159 0.0000
vt 0.6871 0.9216 0.0000
vt 0.6871 0.9291 0.0000
vt 0.2965 0.9291 0.0000
vt 0.0691 0.9763 0.0000
vt 0.2965 0.9216 0.0000
vt 0.2965 0.9159 0.0000
vt 0.2965 0.9108 0.0000
vt 0.2965 0.9063 0.0000
vt 0.2965 0.9001 0.0000
vt 0.2965 0.8945 0.0000
vt 0.2965 0.8864 0.0000
vt 0.0926 0.5444 0.0000
vt 0.3064 0.1077 0.0000
vt 0.3064 0.1144 0.0000
vt 0.3064 0.1191 0.0000
vt 0.3064 0.1237 0.0000
vt 0.3064 0.1290 0.0000
vt 0.3064 0.1358 0.0000
vt 0.3064 0.1392 0.0000
vt 0.3064 0.1436 0.0000
vt 0.3064 0.1484 0.0000
vt 0.0691 0.0000 0.0000
vt 0.9494 0.0000 0.0000
vt 0.9494 0.0571 0.0000
vt 0.0691 0.0571 0.0000
vt 0.9576 0.0621 0.0000
vt 0.0483 0.0621 0.0000
vt -0.0691 0.0000 0.0000
vt -0.0691 0.0039 0.0000
vt -0.9494 0.0039 0.0000
vt -0.9494 0.0000 0.0000
vt 0.0000 0.0571 0.0000
vt -0.0156 0.0571 0.0000
vt -0.0156 0.0000 0.0000
vt 0.0691 0.0039 0.0000
vt 0.9494 0.0039 0.0000
vt 0.0156 0.0000 0.0000
vt 0.0156 0.0571 0.0000
vt 0.0000 0.9828 0.0000
vt -0.0375 0.9828 0.0000
vt -0.0156 0.0621 0.0000
vt -0.0375 0.0621 0.0000
vt 0.0000 0.9763 0.0000
vt 0.0000 0.0621 0.0000
vt 0.0156 0.0621 0.0000
vt 0.0375 0.9763 0.0000
vt 0.0375 0.0621 0.0000
vt -0.0483 0.0000 0.0000
vt -0.0483 0.0094 0.0000
vt -0.9576 0.0094 0.0000
vt -0.9576 0.0000 0.0000
vt 0.0375 0.9828 0.0000
vt -0.0375 0.9763 0.0000
vt 0.0691 0.0094 0.0000
vt 0.9494 0.0094 0.0000
vt 0.9576 0.0039 0.0000
vt 0.9576 0.0094 0.0000
vt 0.0483 0.0094 0.0000
vt 0.0483 0.0039 0.0000
vt -0.2965 -0.0039 0.0000
vt -0.2965 0.0000 0.0000
vt -0.6871 0.0000 0.0000
vt -0.6871 -0.0039 0.0000
vt 0.0000 0.9291 0.0000
vt -0.0156 0.9216 0.0000
vt 0.0000 0.9216 0.0000
vt 0.0000 0.9108 0.0000
vt 0.0156 0.9108 0.0000
vt 0.0000 0.9159 0.0000
vt 0.0000 0.9063 0.0000
vt -0.0156 0.9001 0.0000
vt 0.0000 0.9001 0.0000
vt 0.0000 0.8864 0.0000
vt 0.0156 0.8864 0.0000
vt 0.0000 0.8945 0.0000
vt 0.0156 0.9216 0.0000
vt 0.2965 0.8160 0.0000
vt 0.6871 0.8160 0.0000
vt 0.6871 0.8244 0.0000
vt 0.2965 0.8244 0.0000
vt -0.0156 0.9108 0.0000
vt 0.2965 0.7596 0.0000
vt 0.6871 0.7596 0.0000
vt 0.6871 0.7669 0.0000
vt 0.2965 0.7669 0.0000
vt 0.0156 0.9001 0.0000
vt -0.0156 0.8864 0.0000
vt 0.2965 0.7959 0.0000
vt 0.6871 0.7959 0.0000
vt 0.6871 0.8048 0.0000
vt 0.2965 0.8048 0.0000
vt 0.2965 0.7200 0.0000
vt 0.6871 0.7200 0.0000
vt 0.6871 0.7264 0.0000
vt 0.2965 0.7264 0.0000
vt 0.1499 0.5482 0.0000
vt 0.2061 0.5482 0.0000
vt 0.2061 0.5997 0.0000
vt 0.1499 0.5997 0.0000
vt 0.0926 0.0000 0.0000
vt 0.0926 -0.0063 0.0000
vt 0.2238 -0.0063 0.0000
vt 0.2238 0.0000 0.0000
vt 0.0250 0.5444 0.0000
vt 0.0250 0.6053 0.0000
vt 0.0000 0.6053 0.0000
vt 0.0000 0.5444 0.0000
vt -0.0926 -0.0063 0.0000
vt -0.0926 0.0000 0.0000
vt -0.2238 0.0000 0.0000
vt -0.2238 -0.0063 0.0000
vt -0.0250 0.6053 0.0000
vt -0.0250 0.5444 0.0000
vt 0.0250 0.5482 0.0000
vt 0.0250 0.5997 0.0000
vt -0.0219 0.5997 0.0000
vt -0.0219 0.5482 0.0000
vt -0.0016 0.5997 0.0000
vt -0.0016 0.5482 0.0000
vt 0.0219 0.5482 0.0000
vt 0.0219 0.5997 0.0000
vt -0.1624 0.5482 0.0000
vt -0.1499 0.5482 0.0000
vt -0.1499 0.5997 0.0000
vt -0.1624 0.5997 0.0000
vt 0.1374 0.5997 0.0000
vt 0.1374 0.5482 0.0000
vt -0.1499 -0.0004 0.0000
vt -0.1499 0.0055 0.0000
vt -0.2061 0.0055 0.0000
vt -0.1624 -0.0004 0.0000
vt -0.1624 -0.0016 0.0000
vt -0.2061 -0.0063 0.0000
vt -0.1374 -0.0063 0.0000
vt -0.0063 0.5997 0.0000
vt -0.0063 0.5482 0.0000
vt 0.1624 -0.0016 0.0000
vt 0.1374 -0.0063 0.0000
vt 0.2061 -0.0063 0.0000
vt 0.1624 -0.0004 0.0000
vt 0.2061 0.0055 0.0000
vt 0.1499 0.0055 0.0000
vt 0.1499 -0.0004 0.0000
vt 0.0949 0.5482 0.0000
vt 0.1261 0.5482 0.0000
vt 0.1261 0.5997 0.0000
vt 0.0949 0.5997 0.0000
vt -0.3064 -0.0039 0.0000
vt -0.3064 0.0000 0.0000
vt -0.6939 0.0000 0.0000
vt -0.6939 -0.0039 0.0000
vt 0.0000 0.1575 0.0000
vt -0.0156 0.1484 0.0000
vt 0.0000 0.1484 0.0000
vt 0.0000 0.1144 0.0000
vt -0.0156 0.1077 0.0000
vt 0.0000 0.1077 0.0000
vt 0.3064 0.1347 0.0000
vt 0.6939 0.1347 0.0000
vt 0.0156 0.1484 0.0000
vt 0.3064 0.1025 0.0000
vt 0.6939 0.1025 0.0000
vt 0.6939 0.1053 0.0000
vt 0.3064 0.1053 0.0000
vt 0.3064 0.0910 0.0000
vt 0.6939 0.0910 0.0000
vt 0.6939 0.0988 0.0000
vt 0.3064 0.0988 0.0000
vt 0.6939 0.1014 0.0000
vt 0.3064 0.1014 0.0000
vt 0.0156 0.1077 0.0000
vt 0.0000 0.1392 0.0000
vt -0.0156 0.1358 0.0000
vt 0.0000 0.1358 0.0000
vt 0.3064 0.0861 0.0000
vt 0.6939 0.0861 0.0000
vt 0.3064 0.0921 0.0000
vt 0.6939 0.0921 0.0000
vt 0.3064 0.0972 0.0000
vt 0.6939 0.0972 0.0000
vt 0.6939 0.1038 0.0000
vt 0.3064 0.1038 0.0000
vt 0.0000 0.1237 0.0000
vt 0.0156 0.1237 0.0000
vt 0.0000 0.1290 0.0000
vt -0.0156 0.1237 0.0000
vt 0.3064 0.1380 0.0000
vt 0.6939 0.1380 0.0000
vt 0.6939 0.1419 0.0000
vt 0.3064 0.1419 0.0000
vt 0.0156 0.1358 0.0000
# 222 texture coords

g Layer0_001
usemtl wire_143224087
s off
f 1/1/1 2/1/1 3/1/1 4/1/1 
f 5/1/1 4/1/1 3/1/1 6/1/1 
f 7/1/1 6/1/1 3/1/1 8/1/1 
f 9/1/1 8/1/1 3/1/1 10/1/1 
f 11/1/1 6/1/1 7/1/1 
f 12/1/1 1/1/1 4/1/1 
f 13/1/2 14/1/2 15/1/2 16/1/2 
f 1/1/3 14/1/3 13/1/3 2/1/3 
f 3/1/4 2/1/4 13/1/4 16/1/4 
f 15/1/5 10/1/5 3/1/5 16/1/5 
f 9/2/6 10/3/6 15/4/6 17/5/6 
f 18/6/6 17/5/6 15/4/6 14/7/6 
f 18/6/6 14/7/6 1/1/6 12/8/6 
f 19/9/6 20/10/6 21/11/6 22/12/6 
f 23/13/6 19/9/6 22/12/6 24/14/6 
f 25/15/6 24/14/6 22/12/6 26/16/6 
f 27/17/6 26/16/6 22/12/6 28/18/6 
f 29/19/6 28/18/6 22/12/6 30/20/6 
f 31/21/6 30/20/6 22/12/6 32/22/6 
f 33/23/6 32/22/6 22/12/6 34/24/6 
f 35/25/6 34/24/6 22/12/6 36/26/6 
f 37/27/6 36/26/6 22/12/6 38/28/6 
f 39/29/6 38/28/6 22/12/6 40/30/6 
f 41/31/6 40/30/6 22/12/6 42/32/6 
f 43/33/6 42/32/6 22/12/6 44/34/6 
f 44/34/6 22/12/6 45/35/6 46/36/6 
f 47/37/6 46/36/6 45/35/6 48/38/6 
f 49/39/6 48/38/6 45/35/6 50/40/6 
f 51/41/6 50/40/6 45/35/6 52/42/6 
f 35/25/6 52/42/6 45/35/6 53/43/6 
f 53/43/6 45/35/6 20/10/6 54/44/6 
f 54/44/6 20/10/6 19/9/6 
f 53/43/6 54/44/6 55/45/6 56/46/6 
f 57/47/6 53/43/6 56/46/6 25/15/6 
f 24/14/6 25/15/6 56/46/6 
f 53/43/6 57/47/6 58/48/6 59/49/6 
f 27/17/6 59/49/6 58/48/6 26/16/6 
f 53/43/6 59/49/6 60/50/6 61/51/6 
f 62/52/6 53/43/6 61/51/6 30/20/6 
f 29/19/6 30/20/6 61/51/6 
f 53/43/6 62/52/6 32/22/6 33/23/6 
f 52/42/6 35/25/6 36/26/6 
f 38/28/6 50/40/6 51/41/6 37/27/6 
f 40/30/6 48/38/6 49/39/6 39/29/6 
f 42/32/6 46/36/6 47/37/6 41/31/6 
f 6/53/6 11/54/6 63/55/6 64/56/6 
f 7/54/6 8/2/6 65/57/6 66/55/6 
f 67/56/6 66/55/6 65/57/6 68/58/6 
f 67/56/6 68/58/6 4/8/6 5/53/6 
f 68/58/6 65/57/6 69/11/6 70/10/6 
f 20/59/7 70/60/7 69/61/7 21/62/7 
f 6/1/3 64/63/3 67/64/3 5/65/3 
f 67/66/2 64/53/2 63/54/2 66/67/2 
f 63/63/5 11/1/5 7/68/5 66/69/5 
f 9/1/3 17/70/3 71/71/3 65/72/3 
f 65/72/3 71/71/3 72/73/3 
f 8/65/3 9/1/3 65/72/3 
f 22/74/5 21/75/5 69/76/5 73/77/5 
f 73/77/5 69/76/5 74/78/5 
f 18/79/7 75/80/7 71/81/7 17/82/7 
f 18/70/5 12/1/5 4/68/5 68/76/5 
f 75/83/5 18/70/5 68/76/5 76/78/5 
f 20/75/3 45/74/3 77/84/3 70/72/3 
f 70/72/3 77/84/3 78/73/3 
f 77/85/2 45/53/2 22/54/2 73/86/2 
f 74/11/6 72/57/6 71/5/6 73/12/6 
f 77/35/6 73/12/6 71/5/6 75/6/6 
f 78/10/6 77/35/6 75/6/6 76/58/6 
f 74/86/2 69/67/2 65/87/2 72/88/2 
f 76/89/2 68/90/2 70/66/2 78/85/2 
f 79/91/7 46/92/7 42/93/7 80/94/7 
f 43/95/5 80/96/5 42/97/5 
f 48/98/3 81/99/3 47/100/3 
f 81/91/7 48/92/7 40/93/7 82/94/7 
f 83/91/7 50/92/7 38/93/7 84/94/7 
f 39/101/5 84/102/5 38/103/5 
f 52/104/3 85/105/3 51/106/3 
f 85/91/7 52/92/7 36/93/7 86/94/7 
f 46/97/3 79/107/3 44/95/3 
f 79/108/8 80/109/8 43/110/8 44/111/8 
f 41/100/5 82/112/5 40/98/5 
f 83/113/9 84/114/9 39/115/9 49/116/9 
f 50/103/3 83/117/3 49/101/3 
f 37/106/5 86/118/5 36/104/5 
f 85/119/10 86/120/10 37/121/10 51/122/10 
f 81/123/11 82/124/11 41/125/11 47/126/11 
f 87/127/6 88/128/6 89/129/6 90/130/6 
f 35/131/2 91/132/2 92/133/2 34/134/2 
f 93/135/3 91/136/3 35/137/3 53/138/3 
f 93/139/7 53/140/7 33/141/7 94/142/7 
f 92/143/5 94/144/5 33/138/5 34/137/5 
f 95/145/3 96/146/3 89/147/3 88/148/3 
f 97/149/5 98/150/5 87/151/5 90/152/5 
f 99/153/4 98/154/4 97/155/4 100/156/4 
f 95/128/6 93/43/6 94/23/6 92/24/6 
f 96/129/6 95/128/6 92/24/6 101/157/6 
f 101/157/6 92/24/6 91/25/6 102/158/6 
f 102/158/6 91/25/6 93/43/6 95/128/6 
f 97/159/7 90/160/7 89/161/7 100/162/7 
f 103/163/7 100/162/7 89/161/7 96/164/7 
f 103/163/7 96/164/7 101/165/7 
f 103/166/5 104/167/5 99/150/5 100/149/5 
f 104/168/2 102/169/2 95/170/2 99/171/2 
f 99/171/2 95/170/2 88/172/2 87/173/2 
f 99/171/2 87/173/2 98/174/2 
f 102/175/12 104/176/12 103/177/12 101/178/12 
f 105/179/7 62/180/7 30/181/7 106/182/7 
f 31/183/5 106/184/5 30/185/5 
f 107/179/7 59/180/7 27/181/7 108/182/7 
f 109/179/7 54/180/7 19/181/7 110/182/7 
f 23/186/5 110/187/5 19/188/5 
f 105/189/13 106/190/13 31/19/13 32/51/13 
f 62/185/3 105/191/3 32/183/3 
f 111/192/14 112/193/14 24/194/14 56/195/14 
f 109/196/15 110/197/15 23/198/15 55/199/15 
f 55/199/15 23/198/15 112/200/15 111/201/15 
f 54/188/3 109/202/3 55/186/3 
f 28/203/5 108/204/5 27/205/5 
f 60/196/16 107/206/16 108/207/16 113/208/16 
f 114/209/16 113/208/16 108/207/16 28/197/16 
f 115/210/17 116/211/17 26/212/17 58/213/17 
f 57/214/3 115/215/3 58/216/3 
f 115/179/7 57/180/7 25/181/7 116/182/7 
f 26/216/5 116/217/5 25/214/5 
f 113/218/18 114/219/18 29/220/18 61/221/18 
f 59/205/3 107/222/3 60/203/3 
# 98 polygons - 28 triangles

